<svg id="Layer_1" enable-background="new 0 0 512.019 512.019" height="512" viewBox="0 0 512.019 512.019" width="512" xmlns="http://www.w3.org/2000/svg"><g><path clip-rule="evenodd" d="m164.253 393.855 221.102-221.102-46.078-46.078-221.102 221.102 1.295 44.783z" fill="#fff69b" fill-rule="evenodd"/><path d="m500.323 75.494-63.78-63.778c-15.624-15.621-41.04-15.622-56.66 0l-320.633 320.624c-1.069 1.07-1.883 2.369-2.378 3.799l-56.311 162.607c-1.254 3.619-.33 7.636 2.378 10.344 2.714 2.721 6.764 3.626 10.344 2.378l162.609-56.312c1.43-.496 2.729-1.309 3.799-2.378l320.631-320.624c7.535-7.535 11.686-17.594 11.688-28.324.002-10.735-4.149-20.798-11.687-28.336zm-84.856 113.229-92.154-92.154 21.213-21.212 92.154 92.154zm-236.091 236.086-5.251-32.547c-.764-4.738-4.786-8.264-9.583-8.403l-35.349-1.022-1.021-35.348c-.139-4.797-3.666-8.819-8.403-9.583l-32.546-5.251 221.947-221.944 92.154 92.154zm-106.354-74.187 35.396 5.711 1.056 36.516c.153 5.296 4.411 9.554 9.707 9.707l36.517 1.056 5.711 35.395-79.116 27.398c-3.465-8.14-8.525-15.655-14.769-21.898-6.244-6.244-13.761-11.305-21.9-14.769zm-33.964 98.077c5.307 2.436 10.205 5.831 14.325 9.951 4.118 4.118 7.512 9.014 9.949 14.321l-37.133 12.859zm447.121-330.687-35.356 35.355-92.155-92.154 35.356-35.355c7.823-7.824 20.554-7.822 28.375 0l63.78 63.778c3.761 3.76 5.831 8.799 5.829 14.189 0 5.391-2.07 10.429-5.829 14.187z" fill="#020288"/></g></svg>